<svg id="Layer_1" data-name="Layer 1" xmlns="http://www.w3.org/2000/svg" viewBox="0 0 82 100"><defs><style>.cls-1,.cls-3{fill:#3c3530;}.cls-1{opacity:0.78;isolation:isolate;}.cls-2{fill:#ebebe6;}.cls-4{fill:#ddded4;}.cls-5{fill:#d1d1c6;}.cls-6{fill:#f16b6f;}.cls-7{fill:#bed792;}.cls-8{fill:#cbccbe;}.cls-9{fill:#aacd6e;}</style></defs><title>building</title><path class="cls-1" d="M41,72.9H2.1v4L41,100,79.9,77V73C79.8,72.8,41,72.9,41,72.9Z"/><path class="cls-2" d="M41,25.9H2.1v47L41,96,79.9,73V26C79.8,25.8,41,25.9,41,25.9Z"/><path class="cls-3" d="M2,72.9v4L41,100V96Z"/><path class="cls-4" d="M2,26V73L41,96V25.9Z"/><path class="cls-4" d="M41,24H0.1v4L41,52.1,81.9,28V24C81.8,23.8,41,24,41,24Z"/><path class="cls-5" d="M47,54.9l7-4v13l-7,4v-13Z"/><path class="cls-5" d="M57,49l7-4V58l-7,4V49Z"/><path class="cls-5" d="M0,28L40.8,52H41V24H0v4Z"/><path class="cls-5" d="M67,43l7-4V52l-7,4V43Z"/><path class="cls-5" d="M47,71.9l7-4v13l-7,4v-13Z"/><path class="cls-5" d="M67,60l7-4V69l-7,4V60Z"/><path class="cls-3" d="M57,73l7-4V86.4l-7,4.1V73Z"/><path class="cls-6" d="M57,66l7-4v4l-7,4V66Z"/><path class="cls-2" d="M41,0L0,24,41,48.1,82,24Z"/><path class="cls-7" d="M41,4L6,24,41,44,76,24Z"/><path class="cls-8" d="M35,55l-7-4V64l7,4V55Z"/><path class="cls-8" d="M25,49l-7-4V58l7,4V49Z"/><path class="cls-8" d="M15,43L8,39V52l7,4V43Z"/><path class="cls-8" d="M35,72l-7-4V81l7,4V72Z"/><path class="cls-8" d="M25,66l-7-4V75l7,4V66Z"/><path class="cls-8" d="M15,60L8,56V69l7,4V60Z"/><polygon class="cls-4" points="74 44.6 67 49 67 51 74 46.6 74 44.6"/><polygon class="cls-4" points="74 61.6 67 66 67 68 74 63.6 74 61.6"/><polygon class="cls-4" points="64 50.6 57 54.9 57 56.9 64 52.6 64 50.6"/><polygon class="cls-4" points="54 56.6 47 60.9 47 62.9 54 58.6 54 56.6"/><polygon class="cls-4" points="54 73.6 47 77.9 47 79.9 54 75.6 54 73.6"/><polygon class="cls-5" points="28 56.6 28 58.6 35 63 35 61 28 56.6"/><polygon class="cls-5" points="28 73.6 28 75.6 35 80 35 78 28 73.6"/><polygon class="cls-5" points="18 67.6 18 69.6 25 74 25 72 18 67.6"/><polygon class="cls-5" points="18 50.6 18 52.6 25 57 25 55 18 50.6"/><polygon class="cls-5" points="8 61.6 8 63.6 15 68 15 66 8 61.6"/><polygon class="cls-5" points="8 44.6 8 46.6 15 51 15 49 8 44.6"/><polygon class="cls-9" points="41 6 74.2 25 76 24 41 4 6 24 7.7 25 41 6"/></svg>