<svg id="Layer_1" data-name="Layer 1" xmlns="http://www.w3.org/2000/svg" viewBox="0 0 100 149.74"><defs><style>.cls-1,.cls-2,.cls-3,.cls-4,.cls-5,.cls-6,.cls-7{fill:#c4c5b5;}.cls-1{opacity:0.9;}.cls-2{opacity:0.58;}.cls-3{opacity:0.78;}.cls-4{opacity:0.5;}.cls-5{opacity:0.7;}.cls-6{opacity:0.54;}.cls-7{opacity:0.34;}</style></defs><title>logo-icon-grey</title><polygon class="cls-1" points="0 48.2 46.28 74.87 0 101.54 0 48.2"/><path class="cls-2" d="M25.1,1.08L60.8,21.65,14.51,48.33V7.2A7.06,7.06,0,0,1,25.1,1.08Z" transform="translate(0 -0.13)"/><path class="cls-3" d="M14.51,101.67L60.8,128.34,25.1,148.92a7.06,7.06,0,0,1-10.59-6.12V101.67Z" transform="translate(0 -0.13)"/><path class="cls-4" d="M60.8,21.66L96.46,42.21a7.06,7.06,0,0,1,0,12.23L60.8,75V21.66Z" transform="translate(0 -0.13)"/><path class="cls-5" d="M60.8,75L96.46,95.55a7.06,7.06,0,0,1,0,12.23L60.8,128.34V75Z" transform="translate(0 -0.13)"/><polygon class="cls-6" points="60.8 74.87 14.51 101.54 60.8 128.21 60.8 74.87"/><polygon class="cls-7" points="60.8 21.53 14.51 48.19 60.8 74.87 60.8 21.53"/></svg>