<svg id="Layer_1" data-name="Layer 1" xmlns="http://www.w3.org/2000/svg" viewBox="0 0 193.99 99"><defs><style>.cls-1,.cls-2,.cls-3,.cls-4,.cls-5,.cls-6,.cls-7,.cls-9{fill:#a9cd6d;}.cls-1,.cls-8{opacity:0.9;}.cls-2{opacity:0.58;}.cls-3{opacity:0.78;}.cls-4{opacity:0.5;}.cls-5{opacity:0.7;}.cls-6{opacity:0.54;}.cls-7{opacity:0.34;}</style></defs><title>logo-green</title><polygon class="cls-1" points="0 31.87 30.6 49.5 0 67.14 0 31.87"/><path class="cls-2" d="M17.6,1.13l23.6,13.6L10.6,32.37V5.17A4.67,4.67,0,0,1,17.6,1.13Z" transform="translate(-1.01 -0.5)"/><path class="cls-3" d="M10.6,67.63L41.2,85.27,17.6,98.87a4.67,4.67,0,0,1-7-4V67.63Z" transform="translate(-1.01 -0.5)"/><path class="cls-4" d="M41.2,14.73L64.78,28.32a4.67,4.67,0,0,1,0,8.09L41.2,50V14.73Z" transform="translate(-1.01 -0.5)"/><path class="cls-5" d="M41.2,50L64.78,63.59a4.67,4.67,0,0,1,0,8.09L41.2,85.27V50Z" transform="translate(-1.01 -0.5)"/><polygon class="cls-6" points="40.2 49.5 9.6 67.13 40.2 84.77 40.2 49.5"/><polygon class="cls-7" points="40.2 14.23 9.6 31.86 40.2 49.5 40.2 14.23"/><g class="cls-8"><path class="cls-9" d="M86.48,32.34h16.89a20.37,20.37,0,0,1,4.83.58,12.42,12.42,0,0,1,4.25,1.9,9.79,9.79,0,0,1,4.19,8.42,8.89,8.89,0,0,1-2.08,6.06,11.57,11.57,0,0,1-5.45,3.43v0.12A11.23,11.23,0,0,1,112.88,54a10,10,0,0,1,3,2.26,10.48,10.48,0,0,1,1.93,3.18,10.62,10.62,0,0,1,.7,3.89,11.35,11.35,0,0,1-1.41,5.91,11.17,11.17,0,0,1-3.7,3.79,15.83,15.83,0,0,1-5.26,2.05,29.75,29.75,0,0,1-6,.61H86.48V32.34ZM94.19,50h7q3.86,0,5.78-1.5a5.21,5.21,0,0,0-.06-8.14Q105,39,100.55,39H94.19V50Zm0,19.09h7.1a29.12,29.12,0,0,0,3.15-.18,9.48,9.48,0,0,0,3.09-.86,6.1,6.1,0,0,0,2.33-1.93,5.63,5.63,0,0,0,.92-3.4q0-3.43-2.23-4.77t-6.95-1.35H94.19V69.06Z" transform="translate(-1.01 -0.5)"/><path class="cls-9" d="M146.76,41.59a7.12,7.12,0,0,0-3.27-2.6,11.44,11.44,0,0,0-4.31-.83,11,11,0,0,0-2.6.31,7.08,7.08,0,0,0-2.26,1,5.12,5.12,0,0,0-1.62,1.74,5,5,0,0,0-.61,2.54,4,4,0,0,0,1.53,3.37,15,15,0,0,0,3.79,2q2.26,0.86,5,1.65a20.19,20.19,0,0,1,5,2.2,12.28,12.28,0,0,1,3.79,3.73,11.1,11.1,0,0,1,1.53,6.18A13.59,13.59,0,0,1,151.35,69a12.41,12.41,0,0,1-3.46,4.31,15,15,0,0,1-5,2.57,21.16,21.16,0,0,1-6.06.86A22.75,22.75,0,0,1,129,75.37a15,15,0,0,1-6.43-4.53l5.81-5.63a9.72,9.72,0,0,0,3.7,3.34A10.4,10.4,0,0,0,137,69.74a10.2,10.2,0,0,0,2.69-.37,8.33,8.33,0,0,0,2.45-1.1,5.75,5.75,0,0,0,1.78-1.87,5,5,0,0,0,.67-2.6A4.53,4.53,0,0,0,143,60.13,13.54,13.54,0,0,0,139.23,58q-2.26-.89-5-1.68a20.83,20.83,0,0,1-5-2.17,12,12,0,0,1-3.79-3.67A10.94,10.94,0,0,1,124,44.28a11.68,11.68,0,0,1,1.38-5.81A12.6,12.6,0,0,1,129,34.4,15.77,15.77,0,0,1,134.09,32a22,22,0,0,1,5.88-.8,21.44,21.44,0,0,1,6.64,1,15.4,15.4,0,0,1,5.78,3.43Z" transform="translate(-1.01 -0.5)"/><path class="cls-9" d="M171.33,57.2L155.28,32.41h9.54l10.5,17.26,10.62-17.26H195L178.94,57.2V75.74h-7.61V57.2Z" transform="translate(-1.01 -0.5)"/></g></svg>