<?xml version="1.0" encoding="utf-8"?>
<!-- Generator: Adobe Illustrator 15.1.0, SVG Export Plug-In . SVG Version: 6.00 Build 0)  -->
<!DOCTYPE svg PUBLIC "-//W3C//DTD SVG 1.1//EN" "http://www.w3.org/Graphics/SVG/1.1/DTD/svg11.dtd">
<svg version="1.1" id="Layer_1" xmlns="http://www.w3.org/2000/svg" xmlns:xlink="http://www.w3.org/1999/xlink" x="0px" y="0px"
	 width="579px" height="90px" viewBox="0 0 579 90" enable-background="new 0 0 579 90" xml:space="preserve">
<g>
	<g>
		<g>
			<path fill="#00BEAF" d="M175.681,11.772v33.924l14.062,25.642V11.773L175.681,11.772L175.681,11.772z"/>
			<g>
				<path fill="#00BEAF" d="M221.972,64.828h-0.035L190.45,10.533h-14.77v2.217l8.469,15.434h0.146l5.446,9.471l26.091,45.37h16.118
					L221.972,64.828z M221.538,10.533v32.996l0.986,1.783l9.687,17.658l3.161,5.764V10.533H221.538z"/>
			</g>
			<path fill="#00BEAF" d="M123.211,24.848v58.175h13.733V49.891L123.211,24.848z M174.086,64.826l-31.484-54.293h-15.988
				l9.687,17.654h0.149l31.535,54.836h16.119l-9.984-18.197H174.086z"/>
		</g>
		<rect x="97.142" y="10.533" fill="#00BEAF" width="13.734" height="72.514"/>
		<g>
			<path fill="#00BEAF" d="M267.679,29.021c2.969-3.932,7.369-5.889,13.207-5.889c10.406,0,16.162,6.232,17.26,18.697h15.408
				c-0.67-9.229-3.43-16.473-8.272-21.725c-5.632-6.125-13.763-9.188-24.396-9.188c-10.631,0-18.797,3.037-24.494,9.111
				c-4.918,5.236-7.705,12.506-8.373,21.801h15.418C263.929,36.383,265.343,32.115,267.679,29.021z M280.786,69.836
				c-5.832,0-10.223-1.959-13.151-5.865c-2.299-3.07-3.705-7.319-4.197-12.739h-15.4c0.693,9.192,3.472,16.423,8.33,21.685
				c5.683,6.146,13.822,9.229,24.42,9.229c10.607,0,18.746-3.08,24.421-9.229c4.869-5.271,7.653-12.506,8.34-21.685h-15.4
				C297.023,63.637,291.236,69.836,280.786,69.836z"/>
		</g>
		<g>
			<polygon fill="#00BEAF" points="324.951,82.854 336.707,82.848 338.752,56.024 329.732,28.774 			"/>
			<polygon fill="#00BEAF" points="332.799,10.18 345.785,10.18 366.644,75.951 354.877,76.029 			"/>
			<polygon fill="#00BEAF" points="366.644,46.812 372.164,63.09 383.371,28.499 387.302,82.848 399.056,82.848 392.855,10.18 
				378.148,10.18 			"/>
		</g>
		<g>
			<path fill="#00BEAF" d="M533.283,45.565c2.026,1.756,5.004,3.58,8.938,5.474l7.279-12.163c-2.379-1.201-3.998-2.098-4.859-2.684
				c-1.336-0.922-2.309-1.867-2.914-2.848c-0.612-0.98-0.92-2.131-0.92-3.443c0-2.123,0.758-3.844,2.269-5.164
				c1.508-1.312,3.682-1.977,6.51-1.977c2.379,0,4.791,0.307,7.254,0.92c2.463,0.613,5.566,1.686,9.332,3.229l4.816-11.615
				c-3.632-1.576-7.109-2.805-10.435-3.664c-3.332-0.871-6.824-1.305-10.49-1.305c-7.457,0-13.297,1.781-17.522,5.352
				c-4.228,3.562-6.34,8.473-6.34,14.703c0,3.314,0.639,6.203,1.926,8.684C529.414,41.533,531.134,43.708,533.283,45.565z
				 M567.664,50.603c-2.045-2.65-5.549-5.301-10.51-7.934l-7.296,12.177c0.964,0.529,1.714,0.974,2.259,1.33
				c1.491,0.998,2.625,2.029,3.393,3.111c0.775,1.074,1.16,2.301,1.16,3.682c0,2.48-0.879,4.346-2.625,5.6
				c-1.756,1.254-4.271,1.875-7.543,1.875c-2.736,0-5.754-0.436-9.043-1.297c-3.297-0.867-7.32-2.367-12.076-4.488v13.893
				c5.787,2.828,12.436,4.244,19.961,4.244c8.164,0,14.529-1.834,19.115-5.498c4.576-3.664,6.869-8.684,6.869-15.043
				C571.328,57.65,570.109,53.772,567.664,50.603z"/>
		</g>
		<g>
			<g>
				<path fill="#00BEAF" d="M512.55,10.199v46.5c0,5.309-1.188,9.963-3.562,13.961c-2.378,3.998-5.81,7.061-10.298,9.191
					c-4.489,2.131-9.801,3.195-15.928,3.195c-9.24,0-16.418-2.367-21.531-7.105c-5.11-4.732-7.666-11.215-7.666-19.439V10.198
					h15.188V54.19c0,5.538,1.113,9.604,3.342,12.19c2.229,2.59,5.916,3.883,11.061,3.883c4.982,0,8.595-1.303,10.839-3.908
					c2.245-2.604,3.366-6.689,3.366-12.264V10.197h15.188V10.199z"/>
			</g>
			<rect x="411.248" y="10.542" fill="#00BEAF" width="13.297" height="71.857"/>
			<rect x="435.306" y="39.266" fill="#00BEAF" width="23.724" height="11.443"/>
		</g>
		<path fill="#00BEAF" d="M350.412,67.391"/>
	</g>
	<g>
		<rect x="12.142" y="10.292" fill="#00BEAF" width="73" height="73"/>
		<polyline points="12.142,83.291 12.142,10.292 85.142,10.292 		"/>
	</g>
</g>
</svg>
