<svg id="Layer_1" data-name="Layer 1" xmlns="http://www.w3.org/2000/svg" xmlns:xlink="http://www.w3.org/1999/xlink" viewBox="0 0 41 100"><defs><style>.cls-1{fill:none;}.cls-2{clip-path:url(#clip-path);}.cls-3,.cls-5{fill:#3c3530;}.cls-3{opacity:0.78;isolation:isolate;}.cls-4{fill:#ebebe6;}.cls-6{fill:#ddded4;}.cls-7{fill:#d1d1c6;}.cls-8{fill:#f16b6f;}.cls-9{fill:#bed792;}.cls-10{fill:#aacd6e;}</style><clipPath id="clip-path" transform="translate(-16.17)"><rect class="cls-1" x="16.17" width="41" height="100"/></clipPath></defs><title>bkg-building</title><g class="cls-2"><path class="cls-3" d="M57.17,96s-38.8-23.2-38.9-23v4l38.9,23" transform="translate(-16.17)"/><path class="cls-4" d="M57.17,25.9s-38.8-.1-38.9.1V73l38.9,23" transform="translate(-16.17)"/><path class="cls-5" d="M57.17,96v4" transform="translate(-16.17)"/><path class="cls-6" d="M57.17,24s-40.8-.2-40.9,0v4l40.9,24.1" transform="translate(-16.17)"/><path class="cls-7" d="M51.17,67.9l-7-4v-13l7,4v13Z" transform="translate(-16.17)"/><path class="cls-7" d="M41.17,62l-7-4V45l7,4V62Z" transform="translate(-16.17)"/><path class="cls-7" d="M31.17,56l-7-4V39l7,4V56Z" transform="translate(-16.17)"/><path class="cls-7" d="M51.17,84.9l-7-4v-13l7,4v13Z" transform="translate(-16.17)"/><path class="cls-7" d="M31.17,73l-7-4V56l7,4V73Z" transform="translate(-16.17)"/><path class="cls-5" d="M41.17,90.5l-7-4.1V69l7,4V90.5Z" transform="translate(-16.17)"/><path class="cls-8" d="M41.17,70l-7-4V62l7,4v4Z" transform="translate(-16.17)"/><path class="cls-4" d="M16.17,24l41,24.1V0Z" transform="translate(-16.17)"/><path class="cls-9" d="M22.17,24l35,20V4Z" transform="translate(-16.17)"/><polygon class="cls-6" points="8 46.6 15 51 15 49 8 44.6 8 46.6"/><polygon class="cls-6" points="8 63.6 15 68 15 66 8 61.6 8 63.6"/><polygon class="cls-6" points="18 52.6 25 56.9 25 54.9 18 50.6 18 52.6"/><polygon class="cls-6" points="28 58.6 35 62.9 35 60.9 28 56.6 28 58.6"/><polygon class="cls-6" points="28 75.6 35 79.9 35 77.9 28 73.6 28 75.6"/><polyline class="cls-10" points="41 4 6 24 7.8 25 41 6"/></g></svg>