<svg id="Layer_1" data-name="Layer 1" xmlns="http://www.w3.org/2000/svg" viewBox="0 0 88 100"><defs><style>.cls-1{fill:#d2e3b3;}.cls-2{fill:#e3eecf;}.cls-3{fill:#3c3530;}.cls-4{fill:#dae0e0;}.cls-5{fill:#b6c1c1;}.cls-6{fill:#c5dc9d;}.cls-7{fill:#bed792;}.cls-8{fill:#abcc72;}</style></defs><title>lock</title><path class="cls-1" d="M4,40H84a4,4,0,0,1,4,4V96a4,4,0,0,1-4,4H4a4,4,0,0,1-4-4V44A4,4,0,0,1,4,40Z" transform="translate(0 0)"/><path class="cls-2" d="M4,36H84a4,4,0,0,1,4,4v5a4,4,0,0,1-4,4H4a4,4,0,0,1-4-4V40A4,4,0,0,1,4,36Z" transform="translate(0 0)"/><path class="cls-3" d="M73,39c-4.42,0-8,1.57-8,3.5S68.58,46,73,46s8-1.57,8-3.5S77.42,39,73,39ZM15,39c-4.42,0-8,1.57-8,3.5S10.58,46,15,46s8-1.57,8-3.5S19.42,39,15,39Z" transform="translate(0 0)"/><path class="cls-4" d="M44,0C24.7,0,9,14.71,9,34v8c0,0.55,2.69,2,6,2s6-1.45,6-2l0-.07V34c0-12.7,10.33-22,23-22s23,9.33,23,22v7.91L67,42c0,0.55,2.69,2,6,2s6-1.45,6-2V34C79,14.71,63.3,0,44,0Z" transform="translate(0 0)"/><path class="cls-5" d="M44,6A29.13,29.13,0,0,0,15,35.18V44c3.31,0,6-1.45,6-2l0-.07V34c0-12.7,10.33-22,23-22s23,9.33,23,22v7.91L67,42c0,0.55,2.69,2,6,2V35.18A29.13,29.13,0,0,0,44,6Z" transform="translate(0 0)"/><path class="cls-6" d="M0,96a4,4,0,0,0,4,4H84a4,4,0,0,0,4-4V93H0v3Z" transform="translate(0 0)"/><path class="cls-7" d="M4,49A4,4,0,0,1,.14,46H0V96a4,4,0,0,0,4,4H44V49H4Z" transform="translate(0 0)"/><path class="cls-8" d="M0,93v3a4,4,0,0,0,4,4H44V93H0Z" transform="translate(0 0)"/></svg>