<svg id="Layer_1" data-name="Layer 1" xmlns="http://www.w3.org/2000/svg" viewBox="0 0 96.02 100.03"><defs><style>.cls-1{fill:#aacd6e;}.cls-2{fill:#ecf0f1;}.cls-3{opacity:0.1;}.cls-3,.cls-8{isolation:isolate;}.cls-4{fill:#d2e3b3;}.cls-5{fill:#e4edd0;}.cls-6{fill:#e3eecf;}.cls-7{fill:#bed792;}.cls-8{opacity:0.3;}</style></defs><title>mail</title><path class="cls-1" d="M96,39H4a2,2,0,0,0-2,2V98a2,2,0,0,0,2,2H96a2,2,0,0,0,2-2V41A2,2,0,0,0,96,39Z" transform="translate(-2 0.03)"/><path class="cls-2" d="M5,16V98a2,2,0,0,0,2,2H93a2,2,0,0,0,2-2V2a2,2,0,0,0-2-2H21Z" transform="translate(-2 0.03)"/><path class="cls-3" d="M40,72L95,39v7L51,72H40Z" transform="translate(-2 0.03)"/><path class="cls-4" d="M2,98a2,2,0,0,0,2,2H96a2,2,0,0,0,2-2V42L50,71,2,42V98Z" transform="translate(-2 0.03)"/><path class="cls-5" d="M5,16H21V0Z" transform="translate(-2 0.03)"/><path class="cls-6" d="M2,42L2.05,96,50,71Z" transform="translate(-2 0.03)"/><polygon class="cls-7" points="96 42.03 48 71.03 96 96.03 96 42.03"/><path class="cls-8" d="M98,98V96L50,71,97.33,99.48A2,2,0,0,0,98,98Z" transform="translate(-2 0.03)"/><path class="cls-8" d="M2,98V96L50,71,2.67,99.48A2,2,0,0,1,2,98Z" transform="translate(-2 0.03)"/></svg>